<svg width="40" height="40" viewBox="0 0 40 40" fill="none" xmlns="http://www.w3.org/2000/svg">
<mask id="mask0_61_12" style="mask-type:alpha" maskUnits="userSpaceOnUse" x="0" y="0" width="40" height="40">
<rect width="40" height="40" fill="#1E1E1E"/>
</mask>
<g mask="url(#mask0_61_12)">
<path d="M20.0001 20C18.1667 20 16.5973 19.3472 15.2917 18.0416C13.9862 16.7361 13.3334 15.1666 13.3334 13.3333C13.3334 11.5 13.9862 9.93051 15.2917 8.62496C16.5973 7.3194 18.1667 6.66663 20.0001 6.66663C21.8334 6.66663 23.4029 7.3194 24.7084 8.62496C26.014 9.93051 26.6667 11.5 26.6667 13.3333C26.6667 15.1666 26.014 16.7361 24.7084 18.0416C23.4029 19.3472 21.8334 20 20.0001 20ZM6.66675 33.3333V28.6666C6.66675 27.7222 6.9098 26.8541 7.39591 26.0625C7.88203 25.2708 8.52786 24.6666 9.33341 24.25C11.0556 23.3888 12.8056 22.743 14.5834 22.3125C16.3612 21.8819 18.1667 21.6666 20.0001 21.6666C21.8334 21.6666 23.639 21.8819 25.4167 22.3125C27.1945 22.743 28.9445 23.3888 30.6667 24.25C31.4723 24.6666 32.1181 25.2708 32.6042 26.0625C33.0904 26.8541 33.3334 27.7222 33.3334 28.6666V33.3333H6.66675ZM10.0001 30H30.0001V28.6666C30.0001 28.3611 29.9237 28.0833 29.7709 27.8333C29.6181 27.5833 29.4167 27.3888 29.1667 27.25C27.6667 26.5 26.1529 25.9375 24.6251 25.5625C23.0973 25.1875 21.5556 25 20.0001 25C18.4445 25 16.9029 25.1875 15.3751 25.5625C13.8473 25.9375 12.3334 26.5 10.8334 27.25C10.5834 27.3888 10.382 27.5833 10.2292 27.8333C10.0765 28.0833 10.0001 28.3611 10.0001 28.6666V30ZM20.0001 16.6666C20.9167 16.6666 21.7015 16.3402 22.3542 15.6875C23.007 15.0347 23.3334 14.25 23.3334 13.3333C23.3334 12.4166 23.007 11.6319 22.3542 10.9791C21.7015 10.3263 20.9167 9.99996 20.0001 9.99996C19.0834 9.99996 18.2987 10.3263 17.6459 10.9791C16.9931 11.6319 16.6667 12.4166 16.6667 13.3333C16.6667 14.25 16.9931 15.0347 17.6459 15.6875C18.2987 16.3402 19.0834 16.6666 20.0001 16.6666Z" fill="#4E4343"/>
</g>
</svg>
