<svg width="40" height="40" viewBox="0 0 40 40" fill="none" xmlns="http://www.w3.org/2000/svg">
<rect x="0.9" y="0.9" width="38.2" height="38.2" rx="19.1" fill="#EAEAEA" stroke="#4E4343" stroke-width="1.8"/>
<path d="M30.8829 14.0367C30.0981 14.3772 29.2681 14.6023 28.4188 14.705C29.3148 14.1697 29.9863 13.3275 30.3087 12.3348C29.4666 12.836 28.5449 13.1892 27.5834 13.3789C26.9408 12.682 26.0851 12.2181 25.1504 12.06C24.2157 11.9019 23.255 12.0584 22.4189 12.5051C21.5828 12.9519 20.9186 13.6635 20.5305 14.5283C20.1424 15.3932 20.0523 16.3624 20.2744 17.284C18.5719 17.1979 16.9065 16.7546 15.3864 15.9829C13.8663 15.2111 12.5256 14.1283 11.4514 12.8046C11.0746 13.4626 10.8766 14.2078 10.8771 14.966C10.8757 15.6702 11.0486 16.3637 11.3801 16.9849C11.7117 17.6061 12.1917 18.1357 12.7774 18.5265C12.0966 18.508 11.4304 18.3253 10.8353 17.994V18.0462C10.8404 19.0328 11.1861 19.9874 11.814 20.7485C12.4419 21.5095 13.3133 22.0303 14.281 22.2228C13.9085 22.3362 13.5218 22.396 13.1324 22.4003C12.8629 22.3972 12.5941 22.3727 12.3284 22.3272C12.604 23.1759 13.1373 23.9176 13.854 24.4491C14.5708 24.9806 15.4354 25.2754 16.3275 25.2926C14.821 26.478 12.9611 27.125 11.0441 27.1303C10.6951 27.1315 10.3464 27.1105 10 27.0677C11.9572 28.3314 14.238 29.0022 16.5677 28.9993C18.1754 29.016 19.7702 28.7122 21.2592 28.1056C22.7481 27.4991 24.1012 26.6019 25.2395 25.4665C26.3779 24.3311 27.2785 22.9802 27.8889 21.4929C28.4993 20.0055 28.8072 18.4114 28.7947 16.8037C28.7947 16.6262 28.7947 16.4383 28.7947 16.2503C29.614 15.6393 30.3206 14.8902 30.8829 14.0367Z" fill="#4E4343"/>
</svg>
