<svg width="128" height="24" viewBox="0 0 128 24" fill="none" xmlns="http://www.w3.org/2000/svg">
<mask id="path-1-outside-1_5_90" maskUnits="userSpaceOnUse" x="-1" y="-1" width="130" height="26" fill="black">
<rect fill="white" x="-1" y="-1" width="130" height="26"/>
<path d="M2.896 1.24H6.832L4.368 15.192C4.13333 16.5787 4.25067 17.6773 4.72 18.488C5.18933 19.2987 6.10667 19.704 7.472 19.704C8.83733 19.704 9.904 19.3093 10.672 18.52C11.44 17.7093 11.9413 16.6 12.176 15.192L14.64 1.24H18.576L16.112 15.192C15.8347 16.792 15.3547 18.2107 14.672 19.448C14.0107 20.664 13.0827 21.6133 11.888 22.296C10.7147 22.9787 9.2 23.32 7.344 23.32C5.616 23.32 4.18667 22.9787 3.056 22.296C1.94667 21.592 1.15733 20.632 0.688 19.416C0.24 18.2 0.154667 16.792 0.432 15.192L2.896 1.24ZM20.2555 23L24.0955 1.24H27.6155C28.5328 3.096 29.3542 4.83467 30.0795 6.456C30.8048 8.056 31.4768 9.656 32.0955 11.256C32.7355 12.8347 33.3542 14.52 33.9515 16.312L34.7835 9.56L36.2555 1.24H39.9355L36.0955 23H32.5755C31.6582 20.0133 30.6982 17.2293 29.6955 14.648C28.7142 12.0453 27.6475 9.48533 26.4955 6.968L25.4075 14.68L23.9355 23H20.2555ZM45.9393 23H42.0993L45.9393 1.24H49.7793L45.9393 23ZM63.687 23L59.879 13.304C59.4097 13.7307 58.9403 14.1573 58.471 14.584C58.0017 15.0107 57.5217 15.448 57.031 15.896L55.783 23H51.943L55.783 1.24H59.623L57.863 11.256C59.7403 9.48533 61.383 7.77867 62.791 6.136C64.199 4.49333 65.447 2.86133 66.535 1.24H70.951C69.6923 3.05333 68.391 4.76 67.047 6.36C65.703 7.96 64.327 9.464 62.919 10.872L68.071 23H63.687ZM84.7833 19.32L84.1433 23H71.5993L75.4393 1.24H79.2793L76.0793 19.32H84.7833ZM104.857 10.136L104.153 14.072C103.62 16.9733 102.606 19.2453 101.113 20.888C99.6197 22.5093 97.561 23.32 94.937 23.32C93.209 23.32 91.7583 22.9253 90.585 22.136C89.4117 21.3467 88.5797 20.2587 88.089 18.872C87.5983 17.464 87.513 15.864 87.833 14.072L88.537 10.136C89.049 7.27733 90.0517 5.02667 91.545 3.384C93.0597 1.74133 95.1397 0.919998 97.785 0.919998C99.513 0.919998 100.953 1.32533 102.105 2.136C103.278 2.92533 104.11 4.01333 104.601 5.4C105.092 6.78667 105.177 8.36533 104.857 10.136ZM100.921 10.136C101.22 8.45067 101.092 7.096 100.537 6.072C100.004 5.048 99.001 4.536 97.529 4.536C96.121 4.536 95.001 5.03733 94.169 6.04C93.337 7.04267 92.7717 8.408 92.473 10.136L91.769 14.072C91.4703 15.8213 91.5877 17.1973 92.121 18.2C92.6757 19.2027 93.6783 19.704 95.129 19.704C96.5797 19.704 97.7103 19.2133 98.521 18.232C99.3317 17.2507 99.897 15.864 100.217 14.072L100.921 10.136ZM119.63 23L121.262 13.816H113.134L111.502 23H107.662L111.502 1.24H115.342L113.774 10.136H121.902L123.47 1.24H127.31L123.47 23H119.63Z"/>
</mask>
<path d="M2.896 1.24H6.832L4.368 15.192C4.13333 16.5787 4.25067 17.6773 4.72 18.488C5.18933 19.2987 6.10667 19.704 7.472 19.704C8.83733 19.704 9.904 19.3093 10.672 18.52C11.44 17.7093 11.9413 16.6 12.176 15.192L14.64 1.24H18.576L16.112 15.192C15.8347 16.792 15.3547 18.2107 14.672 19.448C14.0107 20.664 13.0827 21.6133 11.888 22.296C10.7147 22.9787 9.2 23.32 7.344 23.32C5.616 23.32 4.18667 22.9787 3.056 22.296C1.94667 21.592 1.15733 20.632 0.688 19.416C0.24 18.2 0.154667 16.792 0.432 15.192L2.896 1.24ZM20.2555 23L24.0955 1.24H27.6155C28.5328 3.096 29.3542 4.83467 30.0795 6.456C30.8048 8.056 31.4768 9.656 32.0955 11.256C32.7355 12.8347 33.3542 14.52 33.9515 16.312L34.7835 9.56L36.2555 1.24H39.9355L36.0955 23H32.5755C31.6582 20.0133 30.6982 17.2293 29.6955 14.648C28.7142 12.0453 27.6475 9.48533 26.4955 6.968L25.4075 14.68L23.9355 23H20.2555ZM45.9393 23H42.0993L45.9393 1.24H49.7793L45.9393 23ZM63.687 23L59.879 13.304C59.4097 13.7307 58.9403 14.1573 58.471 14.584C58.0017 15.0107 57.5217 15.448 57.031 15.896L55.783 23H51.943L55.783 1.24H59.623L57.863 11.256C59.7403 9.48533 61.383 7.77867 62.791 6.136C64.199 4.49333 65.447 2.86133 66.535 1.24H70.951C69.6923 3.05333 68.391 4.76 67.047 6.36C65.703 7.96 64.327 9.464 62.919 10.872L68.071 23H63.687ZM84.7833 19.32L84.1433 23H71.5993L75.4393 1.24H79.2793L76.0793 19.32H84.7833ZM104.857 10.136L104.153 14.072C103.62 16.9733 102.606 19.2453 101.113 20.888C99.6197 22.5093 97.561 23.32 94.937 23.32C93.209 23.32 91.7583 22.9253 90.585 22.136C89.4117 21.3467 88.5797 20.2587 88.089 18.872C87.5983 17.464 87.513 15.864 87.833 14.072L88.537 10.136C89.049 7.27733 90.0517 5.02667 91.545 3.384C93.0597 1.74133 95.1397 0.919998 97.785 0.919998C99.513 0.919998 100.953 1.32533 102.105 2.136C103.278 2.92533 104.11 4.01333 104.601 5.4C105.092 6.78667 105.177 8.36533 104.857 10.136ZM100.921 10.136C101.22 8.45067 101.092 7.096 100.537 6.072C100.004 5.048 99.001 4.536 97.529 4.536C96.121 4.536 95.001 5.03733 94.169 6.04C93.337 7.04267 92.7717 8.408 92.473 10.136L91.769 14.072C91.4703 15.8213 91.5877 17.1973 92.121 18.2C92.6757 19.2027 93.6783 19.704 95.129 19.704C96.5797 19.704 97.7103 19.2133 98.521 18.232C99.3317 17.2507 99.897 15.864 100.217 14.072L100.921 10.136ZM119.63 23L121.262 13.816H113.134L111.502 23H107.662L111.502 1.24H115.342L113.774 10.136H121.902L123.47 1.24H127.31L123.47 23H119.63Z" fill="#E84242"/>
<path d="M2.896 1.24V0.24H2.05713L1.91124 1.06609L2.896 1.24ZM6.832 1.24L7.81676 1.41391L8.02408 0.24H6.832V1.24ZM4.368 15.192L3.38321 15.0181L3.38202 15.0251L4.368 15.192ZM4.72 18.488L3.85457 18.989L4.72 18.488ZM10.672 18.52L11.3888 19.2174L11.398 19.2077L10.672 18.52ZM12.176 15.192L11.1912 15.0181L11.1896 15.0276L12.176 15.192ZM14.64 1.24V0.24H13.8011L13.6552 1.06609L14.64 1.24ZM18.576 1.24L19.5608 1.41391L19.7681 0.24H18.576V1.24ZM16.112 15.192L15.1272 15.0181L15.1267 15.0212L16.112 15.192ZM14.672 19.448L13.7964 18.9649L13.7935 18.9702L14.672 19.448ZM11.888 22.296L11.3918 21.4277L11.3851 21.4317L11.888 22.296ZM3.056 22.296L2.52018 23.1403L2.52959 23.1463L2.53913 23.1521L3.056 22.296ZM0.688 19.416L-0.250343 19.7617L-0.247688 19.7689L-0.244923 19.7761L0.688 19.416ZM0.432 15.192L-0.552766 15.0181L-0.553308 15.0212L0.432 15.192ZM2.896 2.24H6.832V0.24H2.896V2.24ZM5.84724 1.06609L3.38324 15.0181L5.35276 15.3659L7.81676 1.41391L5.84724 1.06609ZM3.38202 15.0251C3.12722 16.5308 3.22233 17.897 3.85457 18.989L5.58543 17.987C5.279 17.4577 5.13945 16.6265 5.35398 15.3589L3.38202 15.0251ZM3.85457 18.989C4.57736 20.2375 5.92935 20.704 7.472 20.704V18.704C6.28399 18.704 5.80131 18.3598 5.58543 17.987L3.85457 18.989ZM7.472 20.704C9.03845 20.704 10.3893 20.2445 11.3887 19.2174L9.95528 17.8226C9.41867 18.3742 8.63621 18.704 7.472 18.704V20.704ZM11.398 19.2077C12.3365 18.217 12.9041 16.9065 13.1624 15.3564L11.1896 15.0276C10.9786 16.2935 10.5435 17.2017 9.94605 17.8323L11.398 19.2077ZM13.1608 15.3659L15.6248 1.41391L13.6552 1.06609L11.1912 15.0181L13.1608 15.3659ZM14.64 2.24H18.576V0.24H14.64V2.24ZM17.5912 1.06609L15.1272 15.0181L17.0968 15.3659L19.5608 1.41391L17.5912 1.06609ZM15.1267 15.0212C14.8656 16.5278 14.4181 17.8382 13.7964 18.9649L15.5476 19.9311C16.2913 18.5832 16.8038 17.0562 17.0973 15.3628L15.1267 15.0212ZM13.7935 18.9702C13.2203 20.0241 12.4243 20.8378 11.3919 21.4278L12.3841 23.1642C13.7411 22.3889 14.801 21.3039 15.5505 19.9258L13.7935 18.9702ZM11.3851 21.4317C10.4105 21.9987 9.08555 22.32 7.344 22.32V24.32C9.31446 24.32 11.0188 23.9586 12.3909 23.1603L11.3851 21.4317ZM7.344 22.32C5.7433 22.32 4.50647 22.0036 3.57287 21.4399L2.53913 23.1521C3.86686 23.9537 5.4887 24.32 7.344 24.32V22.32ZM3.59182 21.4517C2.66173 20.8614 2.01249 20.0704 1.62092 19.0559L-0.244923 19.7761C0.302178 21.1936 1.2316 22.3226 2.52018 23.1403L3.59182 21.4517ZM1.62634 19.0703C1.25273 18.0562 1.16251 16.8328 1.41731 15.3628L-0.553308 15.0212C-0.853173 16.7512 -0.772726 18.3438 -0.250343 19.7617L1.62634 19.0703ZM1.41676 15.3659L3.88076 1.41391L1.91124 1.06609L-0.552761 15.0181L1.41676 15.3659ZM20.2555 23L19.2707 22.8262L19.0636 24H20.2555V23ZM24.0955 1.24V0.24H23.2565L23.1107 1.06621L24.0955 1.24ZM27.6155 1.24L28.512 0.796912L28.2367 0.24H27.6155V1.24ZM30.0795 6.456L29.1667 6.86437L29.1687 6.86889L30.0795 6.456ZM32.0955 11.256L31.1628 11.6166L31.1657 11.6242L31.1688 11.6317L32.0955 11.256ZM33.9515 16.312L33.0028 16.6282L34.944 16.4343L33.9515 16.312ZM34.7835 9.56L33.7988 9.38578L33.7942 9.41164L33.791 9.4377L34.7835 9.56ZM36.2555 1.24V0.24H35.4169L35.2708 1.06578L36.2555 1.24ZM39.9355 1.24L40.9203 1.41378L41.1274 0.24H39.9355V1.24ZM36.0955 23V24H36.9345L37.0803 23.1738L36.0955 23ZM32.5755 23L31.6196 23.2936L31.8365 24H32.5755V23ZM29.6955 14.648L28.7598 15.0008L28.7634 15.0101L29.6955 14.648ZM26.4955 6.968L27.4048 6.55188L25.9827 3.44433L25.5053 6.8283L26.4955 6.968ZM25.4075 14.68L26.3922 14.8542L26.3953 14.837L26.3977 14.8197L25.4075 14.68ZM23.9355 23V24H24.7741L24.9202 23.1742L23.9355 23ZM21.2403 23.1738L25.0803 1.41378L23.1107 1.06621L19.2707 22.8262L21.2403 23.1738ZM24.0955 2.24H27.6155V0.24H24.0955V2.24ZM26.719 1.68309C27.6316 3.52944 28.4473 5.25643 29.1667 6.86436L30.9923 6.04763C30.261 4.4129 29.4341 2.66256 28.512 0.796912L26.719 1.68309ZM29.1687 6.86889C29.8864 8.4521 30.5511 10.0347 31.1628 11.6166L33.0282 10.8954C32.4026 9.27732 31.7232 7.6599 30.9903 6.04311L29.1687 6.86889ZM31.1688 11.6317C31.8 13.1888 32.4115 14.8542 33.0028 16.6282L34.9002 15.9958C34.2969 14.1858 33.671 12.4805 33.0222 10.8803L31.1688 11.6317ZM34.944 16.4343L35.776 9.6823L33.791 9.4377L32.959 16.1897L34.944 16.4343ZM35.7682 9.73422L37.2402 1.41422L35.2708 1.06578L33.7988 9.38578L35.7682 9.73422ZM36.2555 2.24H39.9355V0.24H36.2555V2.24ZM38.9507 1.06621L35.1107 22.8262L37.0803 23.1738L40.9203 1.41378L38.9507 1.06621ZM36.0955 22H32.5755V24H36.0955V22ZM33.5314 22.7064C32.6079 19.6995 31.6401 16.8924 30.6277 14.2859L28.7634 15.0101C29.7562 17.5662 30.7085 20.3272 31.6196 23.2936L33.5314 22.7064ZM30.6312 14.2952C29.6418 11.6712 28.5664 9.09011 27.4048 6.55188L25.5862 7.38412C26.7286 9.88056 27.7865 12.4194 28.7598 15.0008L30.6312 14.2952ZM25.5053 6.8283L24.4173 14.5403L26.3977 14.8197L27.4857 7.10769L25.5053 6.8283ZM24.4228 14.5058L22.9508 22.8258L24.9202 23.1742L26.3922 14.8542L24.4228 14.5058ZM23.9355 22H20.2555V24H23.9355V22ZM45.9393 23V24H46.7782L46.924 23.1738L45.9393 23ZM42.0993 23L41.1145 22.8262L40.9073 24H42.0993V23ZM45.9393 1.24V0.24H45.1003L44.9545 1.06621L45.9393 1.24ZM49.7793 1.24L50.764 1.41378L50.9712 0.24H49.7793V1.24ZM45.9393 22H42.0993V24H45.9393V22ZM43.084 23.1738L46.924 1.41378L44.9545 1.06621L41.1145 22.8262L43.084 23.1738ZM45.9393 2.24H49.7793V0.24H45.9393V2.24ZM48.7945 1.06621L44.9545 22.8262L46.924 23.1738L50.764 1.41378L48.7945 1.06621ZM63.687 23L62.7562 23.3656L63.0054 24H63.687V23ZM59.879 13.304L60.8098 12.9384L60.2796 11.5884L59.2063 12.5641L59.879 13.304ZM58.471 14.584L59.1437 15.3239V15.3239L58.471 14.584ZM57.031 15.896L56.3567 15.1575L56.105 15.3873L56.0461 15.723L57.031 15.896ZM55.783 23V24H56.6226L56.7679 23.173L55.783 23ZM51.943 23L50.9582 22.8262L50.7511 24H51.943V23ZM55.783 1.24V0.24H54.944L54.7982 1.06621L55.783 1.24ZM59.623 1.24L60.6079 1.41307L60.814 0.24H59.623V1.24ZM57.863 11.256L56.8781 11.0829L56.3564 14.0516L58.5491 11.9835L57.863 11.256ZM62.791 6.136L62.0317 5.48521L62.791 6.136ZM66.535 1.24V0.24H66.0018L65.7046 0.682781L66.535 1.24ZM70.951 1.24L71.7725 1.81021L72.8624 0.24H70.951V1.24ZM67.047 6.36L66.2813 5.71681L67.047 6.36ZM62.919 10.872L62.2119 10.1649L61.7348 10.642L61.9986 11.263L62.919 10.872ZM68.071 23V24H69.5823L68.9914 22.609L68.071 23ZM64.6178 22.6344L60.8098 12.9384L58.9482 13.6696L62.7562 23.3656L64.6178 22.6344ZM59.2063 12.5641C58.737 12.9907 58.2677 13.4174 57.7983 13.8441L59.1437 15.3239C59.613 14.8973 60.0823 14.4706 60.5517 14.0439L59.2063 12.5641ZM57.7983 13.8441C57.3284 14.2712 56.8479 14.7091 56.3567 15.1575L57.7053 16.6345C58.1954 16.1869 58.6749 15.7501 59.1437 15.3239L57.7983 13.8441ZM56.0461 15.723L54.7981 22.827L56.7679 23.173L58.0159 16.069L56.0461 15.723ZM55.783 22H51.943V24H55.783V22ZM52.9278 23.1738L56.7678 1.41378L54.7982 1.06621L50.9582 22.8262L52.9278 23.1738ZM55.783 2.24H59.623V0.24H55.783V2.24ZM58.6381 1.06693L56.8781 11.0829L58.8479 11.4291L60.6079 1.41307L58.6381 1.06693ZM58.5491 11.9835C60.4475 10.193 62.1154 8.46081 63.5503 6.78679L62.0317 5.48521C60.6506 7.09652 59.0332 8.77765 57.1769 10.5285L58.5491 11.9835ZM63.5503 6.78679C64.9811 5.11749 66.2533 3.45437 67.3654 1.79722L65.7046 0.682781C64.6407 2.2683 63.4169 3.86917 62.0317 5.48521L63.5503 6.78679ZM66.535 2.24H70.951V0.24H66.535V2.24ZM70.1295 0.669785C68.8873 2.45935 67.6045 4.14154 66.2813 5.71681L67.8127 7.00319C69.1775 5.37846 70.4973 3.64731 71.7725 1.81021L70.1295 0.669785ZM66.2813 5.71681C64.955 7.29575 63.5985 8.77832 62.2119 10.1649L63.6261 11.5791C65.0555 10.1497 66.451 8.62425 67.8127 7.00319L66.2813 5.71681ZM61.9986 11.263L67.1506 23.391L68.9914 22.609L63.8394 10.481L61.9986 11.263ZM68.071 22H63.687V24H68.071V22ZM84.7832 19.32L85.7685 19.4913L85.9722 18.32H84.7832V19.32ZM84.1432 23V24H84.9843L85.1285 23.1713L84.1432 23ZM71.5993 23L70.6145 22.8262L70.4073 24H71.5993V23ZM75.4392 1.24V0.24H74.6003L74.4545 1.06621L75.4392 1.24ZM79.2793 1.24L80.2639 1.41428L80.4718 0.24H79.2793V1.24ZM76.0793 19.32L75.0946 19.1457L74.8867 20.32H76.0793V19.32ZM83.798 19.1487L83.158 22.8287L85.1285 23.1713L85.7685 19.4913L83.798 19.1487ZM84.1432 22H71.5993V24H84.1432V22ZM72.584 23.1738L76.424 1.41378L74.4545 1.06621L70.6145 22.8262L72.584 23.1738ZM75.4392 2.24H79.2793V0.24H75.4392V2.24ZM78.2946 1.06572L75.0946 19.1457L77.0639 19.4943L80.2639 1.41428L78.2946 1.06572ZM76.0793 20.32H84.7832V18.32H76.0793V20.32ZM104.857 10.136L103.873 9.95816L103.873 9.95993L104.857 10.136ZM104.153 14.072L105.137 14.2528L105.137 14.2481L104.153 14.072ZM101.113 20.888L101.849 21.5655L101.853 21.5607L101.113 20.888ZM90.585 22.136L90.0268 22.9657V22.9657L90.585 22.136ZM88.089 18.872L87.1447 19.2011L87.1463 19.2056L88.089 18.872ZM87.833 14.072L86.8486 13.8959L86.8486 13.8962L87.833 14.072ZM88.537 10.136L87.5527 9.9597L87.5526 9.95993L88.537 10.136ZM91.545 3.384L90.8098 2.7061L90.8051 2.71133L91.545 3.384ZM102.105 2.136L101.53 2.95381L101.538 2.95986L101.547 2.96572L102.105 2.136ZM100.921 10.136L101.905 10.3121L101.906 10.3105L100.921 10.136ZM100.537 6.072L99.6501 6.53393L99.6538 6.54114L99.6577 6.54828L100.537 6.072ZM94.169 6.04L93.3994 5.40143L94.169 6.04ZM92.473 10.136L93.4574 10.3121L93.4584 10.3063L92.473 10.136ZM91.769 14.072L90.7846 13.8959L90.7833 13.9037L91.769 14.072ZM92.121 18.2L91.2381 18.6696L91.242 18.6769L91.246 18.6841L92.121 18.2ZM98.521 18.232L99.292 18.8689L98.521 18.232ZM100.217 14.072L99.2326 13.8959L99.2326 13.8962L100.217 14.072ZM103.873 9.95993L103.169 13.8959L105.137 14.2481L105.841 10.3121L103.873 9.95993ZM103.169 13.8912C102.659 16.6679 101.706 18.7491 100.373 20.2153L101.853 21.5607C103.507 19.7416 104.58 17.2788 105.137 14.2528L103.169 13.8912ZM100.377 20.2105C99.1094 21.5873 97.3394 22.32 94.937 22.32V24.32C97.7826 24.32 100.13 23.4314 101.849 21.5655L100.377 20.2105ZM94.937 22.32C93.3633 22.32 92.118 21.9621 91.1432 21.3063L90.0268 22.9657C91.3986 23.8886 93.0547 24.32 94.937 24.32V22.32ZM91.1432 21.3063C90.1555 20.6418 89.4539 19.7314 89.0317 18.5384L87.1463 19.2056C87.7055 20.7859 88.6679 22.0515 90.0268 22.9657L91.1432 21.3063ZM89.0333 18.5429C88.6103 17.3292 88.521 15.9079 88.8174 14.2478L86.8486 13.8962C86.505 15.8201 86.5863 17.5988 87.1447 19.2011L89.0333 18.5429ZM88.8174 14.2481L89.5214 10.3121L87.5526 9.95993L86.8486 13.8959L88.8174 14.2481ZM89.5213 10.3123C90.0102 7.58283 90.9516 5.52336 92.2849 4.05667L90.8051 2.71133C89.1517 4.52997 88.0878 6.97184 87.5527 9.9597L89.5213 10.3123ZM92.2802 4.06188C93.5707 2.66234 95.363 1.92 97.785 1.92V-0.0800018C94.9163 -0.0800018 92.5487 0.820327 90.8098 2.70612L92.2802 4.06188ZM97.785 1.92C99.3543 1.92 100.581 2.28631 101.53 2.95381L102.68 1.31819C101.325 0.364353 99.6717 -0.0800018 97.785 -0.0800018V1.92ZM101.547 2.96572C102.535 3.63019 103.236 4.54058 103.658 5.73358L105.544 5.06642C104.985 3.48608 104.022 2.22048 102.663 1.30628L101.547 2.96572ZM103.658 5.73358C104.079 6.92335 104.169 8.32067 103.873 9.95816L105.841 10.3138C106.185 8.41 106.104 6.64998 105.544 5.06642L103.658 5.73358ZM101.906 10.3105C102.226 8.50345 102.119 6.89296 101.416 5.59572L99.6577 6.54828C100.064 7.29904 100.213 8.39788 99.9363 9.9615L101.906 10.3105ZM101.424 5.61006C100.669 4.16036 99.2529 3.536 97.529 3.536V5.536C98.7491 5.536 99.3385 5.93564 99.6501 6.53393L101.424 5.61006ZM97.529 3.536C95.8508 3.536 94.4382 4.14957 93.3994 5.40143L94.9386 6.67857C95.5638 5.9251 96.3912 5.536 97.529 5.536V3.536ZM93.3994 5.40143C92.4237 6.5773 91.8061 8.12282 91.4876 9.96568L93.4584 10.3063C93.7372 8.69318 94.2503 7.50803 94.9386 6.67857L93.3994 5.40143ZM91.4886 9.95993L90.7846 13.8959L92.7534 14.2481L93.4574 10.3121L91.4886 9.95993ZM90.7833 13.9037C90.467 15.756 90.5568 17.3888 91.2381 18.6696L93.0039 17.7304C92.6185 17.0059 92.4737 15.8866 92.7547 14.2403L90.7833 13.9037ZM91.246 18.6841C92.0254 20.0931 93.4277 20.704 95.129 20.704V18.704C93.929 18.704 93.3259 18.3122 92.996 17.7159L91.246 18.6841ZM95.129 20.704C96.8312 20.704 98.2634 20.114 99.292 18.8689L97.75 17.5951C97.1572 18.3127 96.3282 18.704 95.129 18.704V20.704ZM99.292 18.8689C100.249 17.7098 100.863 16.1407 101.201 14.2478L99.2326 13.8962C98.9306 15.5873 98.4139 16.7915 97.75 17.5951L99.292 18.8689ZM101.201 14.2481L101.905 10.3121L99.9366 9.95993L99.2326 13.8959L101.201 14.2481ZM119.63 23L118.645 22.825L118.436 24H119.63V23ZM121.262 13.816L122.246 13.991L122.455 12.816H121.262V13.816ZM113.134 13.816V12.816H112.296L112.149 13.641L113.134 13.816ZM111.502 23V24H112.34L112.486 23.175L111.502 23ZM107.662 23L106.677 22.8262L106.47 24H107.662V23ZM111.502 1.24V0.24H110.663L110.517 1.06621L111.502 1.24ZM115.342 1.24L116.327 1.41358L116.533 0.24H115.342V1.24ZM113.774 10.136L112.789 9.96242L112.582 11.136H113.774V10.136ZM121.902 10.136V11.136H122.741L122.887 10.3096L121.902 10.136ZM123.47 1.24V0.24H122.631L122.485 1.06642L123.47 1.24ZM127.31 1.24L128.295 1.41378L128.502 0.24H127.31V1.24ZM123.47 23V24H124.309L124.455 23.1738L123.47 23ZM120.614 23.175L122.246 13.991L120.277 13.641L118.645 22.825L120.614 23.175ZM121.262 12.816H113.134V14.816H121.262V12.816ZM112.149 13.641L110.517 22.825L112.486 23.175L114.118 13.991L112.149 13.641ZM111.502 22H107.662V24H111.502V22ZM108.647 23.1738L112.487 1.41378L110.517 1.06621L106.677 22.8262L108.647 23.1738ZM111.502 2.24H115.342V0.24H111.502V2.24ZM114.357 1.06642L112.789 9.96242L114.759 10.3096L116.327 1.41358L114.357 1.06642ZM113.774 11.136H121.902V9.136H113.774V11.136ZM122.887 10.3096L124.455 1.41358L122.485 1.06642L120.917 9.96242L122.887 10.3096ZM123.47 2.24H127.31V0.24H123.47V2.24ZM126.325 1.06621L122.485 22.8262L124.455 23.1738L128.295 1.41378L126.325 1.06621ZM123.47 22H119.63V24H123.47V22Z" fill="#E84242" mask="url(#path-1-outside-1_5_90)"/>
</svg>
